<svg width="178" height="100" viewBox="0 0 178 100" fill="none" xmlns="http://www.w3.org/2000/svg">
<path d="M118.453 75.6097C118.453 75.6097 92.0689 -67.8202 92.0689 75.6097C83.6738 -1.85452 87.2717 -18.1946 60.8872 73.7942C54.291 82.2668 116.903 41.4634 50.0935 55.0333C49.6418 55.125 56.09 44.5076 60.8872 43.9024C68.083 44.5076 55.0789 87.1951 50.6836 72.039L48.285 62.1951C41.4911 38.4146 19.7506 61.5853 29.2621 75.6097C31.7208 79.2351 26.7072 36.8776 17.7125 57.454M118.453 75.6097C129.132 28.6585 133.209 75 133.209 75C139.448 27.439 148.155 75 148.155 75L145.438 48.9816M118.453 75.6097V48.9816" stroke="black" stroke-width="3"/>
<path d="M18.5007 58.5784C18.483 58.7012 18.6802 58.7772 18.8258 58.8695C19.159 59.0807 19.5685 59.3002 19.9862 59.4433C20.3327 59.562 20.604 59.6715 20.9792 59.7286C21.4684 59.803 21.2986 59.2838 21.1908 59.1326C20.9764 58.8319 20.1517 58.8054 19.723 58.7402C19.5672 58.7165 18.7017 58.5299 18.6235 58.5971" stroke="#E48311" stroke-width="3" stroke-linecap="round"/>
<path d="M16.1818 58.0192C16.0737 58.3538 15.609 58.4546 15.2209 58.5649C14.8641 58.6662 14.5307 58.6553 14.1399 58.5284C13.6754 58.3775 13.6925 57.9036 13.8274 57.6538C14.0126 57.3107 14.8487 57.6329 15.2108 57.7228C15.4108 57.7724 15.8821 57.9371 16.0324 57.8213" stroke="#84A4F9" stroke-width="3" stroke-linecap="round"/>
<path d="M18.561 57.3835C18.7595 57.4371 18.9771 57.4722 19.1939 57.4935C19.4526 57.5189 19.7587 57.5529 20.0466 57.4807C20.3242 57.411 21.0374 57.2106 21.0694 56.8968C21.0903 56.6924 21.0621 56.4263 20.8438 56.3502C20.5962 56.2639 20.3251 56.3253 20.0336 56.4335C19.9017 56.4824 19.7699 56.5313 19.6381 56.5803C19.5154 56.6258 19.404 56.7013 19.2852 56.7578C19.1131 56.8396 18.9044 56.9416 18.7554 57.0595C18.6122 57.1729 18.5676 57.2317 18.599 57.3694" stroke="#FB19A0" stroke-width="3" stroke-linecap="round"/>
<path d="M17.0697 57.0249C17.0678 56.8388 17.0404 56.642 16.9986 56.4498C16.9488 56.2206 16.8939 55.9481 16.7315 55.7229C16.5749 55.5057 16.1498 54.9541 15.8064 55.02C15.5828 55.0628 15.308 55.166 15.2919 55.3758C15.2737 55.6136 15.4197 55.8276 15.6214 56.0453C15.7126 56.1437 15.8038 56.2422 15.895 56.3406C15.9799 56.4322 16.0934 56.5052 16.1888 56.5902C16.327 56.7135 16.4975 56.8619 16.6673 56.9546C16.8305 57.0436 16.9063 57.0643 17.0434 56.9965" stroke="#19BEE2" stroke-width="3" stroke-linecap="round"/>
<path d="M17.4566 57.3264C17.3175 57.9244 17.0733 58.4392 16.871 58.9994C16.6713 59.5528 16.5154 60.1234 16.3977 60.7062C16.281 61.2841 16.0858 62.0711 16.5018 62.3093C16.7288 62.4393 17.1202 62.5874 17.3457 62.1761C17.5525 61.799 17.7061 61.2419 17.727 60.7898C17.7552 60.1788 17.6748 59.5236 17.5397 59.0015C17.4924 58.8189 17.532 58.6148 17.5078 58.4347C17.4839 58.2565 17.5697 58.0289 17.5521 57.8568" stroke="#570C93" stroke-width="3" stroke-linecap="round"/>
<path d="M119.621 49.9359C119.621 49.7484 119.813 49.6796 119.96 49.5748C120.295 49.3349 120.702 49.0999 121.107 48.9809C121.442 48.8823 121.707 48.7803 122.061 48.7803C122.522 48.7803 122.296 49.5177 122.177 49.7192C121.939 50.12 121.174 49.972 120.77 49.972C120.623 49.972 119.8 50.0541 119.737 49.9359" stroke="#570C93" stroke-width="3" stroke-linecap="round"/>
<path d="M118.262 49.8547C118.262 49.5051 117.553 49.275 116.974 49.0581C116.442 48.8587 115.889 48.7728 115.181 48.7808C114.338 48.7902 114.115 49.2459 114.204 49.5225C114.326 49.9024 115.869 49.8373 116.511 49.8563C116.866 49.8668 117.727 49.8462 117.912 49.9998" stroke="#F4D013" stroke-width="3" stroke-linecap="round"/>
<path d="M119.738 51.5318C119.852 51.5371 119.971 51.5548 120.085 51.5794C120.221 51.6088 120.384 51.6415 120.508 51.7247C120.628 51.8049 120.929 52.0218 120.859 52.1848C120.814 52.291 120.727 52.4203 120.597 52.423C120.449 52.4262 120.33 52.3511 120.214 52.2493C120.162 52.2032 120.109 52.1571 120.057 52.1111C120.008 52.0682 119.973 52.0121 119.929 51.9644C119.865 51.8952 119.789 51.8099 119.747 51.7263C119.706 51.646 119.7 51.6092 119.753 51.5451" stroke="#19BEE2" stroke-width="3" stroke-linecap="round"/>
<path d="M119.004 49.9999C118.968 49.2739 118.692 48.6251 118.517 47.9314C118.343 47.2459 118.263 46.5488 118.263 45.8446C118.263 45.1462 118.192 44.1884 119.105 43.9889C119.604 43.8801 120.433 43.7813 120.713 44.3053C120.97 44.7859 121.051 45.4668 120.913 45.9997C120.725 46.7198 120.307 47.4711 119.833 48.0561C119.668 48.2607 119.664 48.507 119.545 48.7131C119.427 48.917 119.506 49.1996 119.403 49.3976" stroke="#D72727" stroke-width="3" stroke-linecap="round"/>
<path d="M118.262 51.2192C116.627 51.2192 116.353 51.6176 115.89 51.8538C115.593 52.0055 115.069 52.4388 116.483 52.4388C116.891 52.4388 117.023 52.3153 117.1 52.2558C117.291 52.1075 117.529 51.9412 117.609 51.7895C117.659 51.6959 117.615 51.5979 117.615 51.5038C117.615 51.4264 117.486 51.39 117.831 51.4225" stroke="#8EF010" stroke-width="3" stroke-linecap="round"/>
<path d="M144.281 50.3116C144.353 49.9758 143.79 49.5895 143.336 49.2463C142.919 48.9307 142.461 48.7194 141.849 48.5619C141.122 48.3747 140.836 48.7605 140.856 49.0469C140.883 49.4404 142.225 49.7374 142.774 49.9052C143.077 49.9979 143.822 50.1787 143.95 50.3695" stroke="#570C93" stroke-width="3" stroke-linecap="round"/>
<path d="M145.192 49.9999C145.138 49.2739 144.724 48.6251 144.461 47.9314C144.201 47.2459 144.081 46.5488 144.081 45.8446C144.081 45.1462 143.974 44.1884 145.344 43.9889C146.091 43.8801 147.335 43.7813 147.756 44.3053C148.141 44.7859 148.263 45.4668 148.055 45.9997C147.774 46.7198 147.146 47.4711 146.436 48.0561C146.187 48.2607 146.182 48.507 146.004 48.7131C145.827 48.917 145.945 49.1996 145.79 49.3976" stroke="#FB19A0" stroke-width="3" stroke-linecap="round"/>
<path d="M147.107 49.3235C147.131 49.1405 147.397 49.078 147.607 48.9792C148.087 48.7531 148.662 48.5336 149.219 48.4273C149.682 48.3391 150.05 48.246 150.524 48.2546C151.143 48.2658 150.747 48.9803 150.562 49.1741C150.193 49.5595 149.186 49.3965 148.644 49.3867C148.447 49.3832 147.332 49.4433 147.262 49.3264" stroke="#19BEE2" stroke-width="3" stroke-linecap="round"/>
<path d="M144.079 51.2192C143.262 51.2192 143.124 51.6176 142.893 51.8538C142.744 52.0055 142.482 52.4388 143.189 52.4388C143.393 52.4388 143.459 52.3153 143.498 52.2558C143.594 52.1075 143.712 51.9412 143.752 51.7895C143.777 51.6959 143.755 51.5979 143.755 51.5038C143.755 51.4264 143.691 51.39 143.863 51.4225" stroke="#8EF010" stroke-width="3" stroke-linecap="round"/>
<path d="M146.672 50.4352C146.869 50.4608 147.083 50.5045 147.295 50.557C147.547 50.6197 147.847 50.6913 148.118 50.8273C148.379 50.9584 149.049 51.3093 149.049 51.5259C149.049 51.6669 148.996 51.8336 148.777 51.8167C148.529 51.7976 148.274 51.6739 148.002 51.5131C147.88 51.4404 147.757 51.3677 147.635 51.295C147.52 51.2274 147.42 51.1434 147.311 51.0697C147.153 50.963 146.961 50.8317 146.828 50.7083C146.701 50.5896 146.664 50.5372 146.708 50.4562" stroke="#D72727" stroke-width="3" stroke-linecap="round"/>
</svg>
